<svg id="Capa_1" data-name="Capa 1" xmlns="http://www.w3.org/2000/svg" viewBox="0 0 120 120"><defs><style>.cls-1{fill:#010101;}.cls-2{fill:#050505;}.cls-3{fill:#040404;}.cls-4{fill:#070707;}.cls-5{fill:#0c0c0c;}.cls-6{fill:#0b0b0b;}.cls-7{fill:#0d0d0d;}.cls-8{fill:#0f0f0f;}.cls-9{fill:#fefefe;}.cls-10{fill:#fafafa;}.cls-11{font-size:16.36px;font-family:TimesNewRomanPS-ItalicMT, Times New Roman;font-style:italic;}</style></defs><title>circulo</title><path class="cls-1" d="M102,38.77a44.21,44.21,0,0,1,5,23.83A46.07,46.07,0,0,1,96.47,89.72c-.19.23-.43.41-.64.62a1,1,0,0,1-.65-1.1c.48-1.83,1.86-3.12,2.88-4.6,4.5-6.55,6.53-13.91,7.3-21.7.18-1.82-.15-2.08-2.44-2.08H65c-1.34,0-2.68.07-4-.05-.64-.07-1.51-.08-1.46-1s.8-1,1.49-1.08a16,16,0,0,1,1.83,0q20,0,39.93,0c.83,0,1.71.23,2.46-.34a3.23,3.23,0,0,0,0-2.48,46.08,46.08,0,0,0-3.67-14.32,4,4,0,0,1-.6-2.42C101.22,38.69,101.49,38.45,102,38.77Z"/><path class="cls-2" d="M42.85,16.17A44.81,44.81,0,0,1,64.17,13a39.71,39.71,0,0,1,12,2.7A65.4,65.4,0,0,1,86.28,21c.35.62,0,.95-.52,1.16-2.59-.9-4.75-2.61-7.26-3.7a45.4,45.4,0,0,0-32.67-1.69,6.06,6.06,0,0,1-2.29.51C43,17.08,42.47,16.91,42.85,16.17Z"/><path class="cls-3" d="M80.44,102.25A44.68,44.68,0,0,1,56,106.82a41.85,41.85,0,0,1-16.45-4.57c-.13-.5.12-.78.54-1a3.2,3.2,0,0,1,2.09.45,44.57,44.57,0,0,0,35.6,0,3.2,3.2,0,0,1,2.09-.45A.78.78,0,0,1,80.44,102.25Z"/><path class="cls-3" d="M16.65,78.17C11.19,64.83,11.57,51.69,18,38.77c.5-.32.77-.06,1,.38a5.52,5.52,0,0,1-.81,2.94,46,46,0,0,0-3.65,19.13A48,48,0,0,0,17,74.59a9,9,0,0,1,.71,2.8C17.54,77.93,17.43,78.49,16.65,78.17Z"/><path class="cls-4" d="M16.65,78.17c.5,0,.65-.37.68-.81.76.06.94.71,1.18,1.24A45.86,45.86,0,0,0,32.88,96.5c.52.4,1.13.73,1.34,1.43-.11.5-.28.91-.92.7A44.73,44.73,0,0,1,16.65,78.17Z"/><path class="cls-5" d="M95.39,89.43l.44.91a36.34,36.34,0,0,1-9.11,8.29c-.57.28-.89.1-1-.51.1-.76.75-1.05,1.24-1.48,2.38-2,5-3.82,6.92-6.38A1.57,1.57,0,0,1,95.39,89.43Z"/><path class="cls-6" d="M18.8,39.23a.75.75,0,0,0-.76-.46,37.85,37.85,0,0,1,7.24-10.6c.62-.17.82.19.91.7-2.09,3.18-4.52,6.12-6.31,9.5A1.29,1.29,0,0,1,18.8,39.23Z"/><path class="cls-6" d="M102,38.77a.81.81,0,0,0-.77.46c-.71-.06-1-.66-1.27-1.16a42.11,42.11,0,0,0-5.81-8.26,1.49,1.49,0,0,1-.38-.81c.06-.52.27-.87.87-.81A35.14,35.14,0,0,1,102,38.77Z"/><path class="cls-7" d="M42.85,16.17c0,.48.29.68.74.71a.58.58,0,0,1-.42.71c-3.1,1.24-5.92,3.06-8.91,4.54a1.08,1.08,0,0,1-.94-.89A32.86,32.86,0,0,1,42.85,16.17Z"/><path class="cls-5" d="M94.61,28.19l-.66.73c-1.4-.29-2-1.59-3-2.42-1.7-1.48-3.74-2.62-5-4.54l.36-1A32.26,32.26,0,0,1,94.61,28.19Z"/><path class="cls-5" d="M33.32,21.24l.77.65c0,.7-.63,1-1.08,1.35C31,25,28.8,26.6,26.92,28.53c-.21.22-.44.62-.86.27l-.78-.63A35.71,35.71,0,0,1,33.32,21.24Z"/><path class="cls-8" d="M33.3,98.63l.78-.66A11.7,11.7,0,0,1,40,101.4l-.4.85A24.51,24.51,0,0,1,33.3,98.63Z"/><path class="cls-8" d="M85.92,98c0,.49.37.64.8.66a25.34,25.34,0,0,1-6.28,3.62l-.4-.85A11.78,11.78,0,0,1,85.92,98Z"/><path class="cls-9" d="M85.92,98,80,101.4a48.85,48.85,0,0,1-20.4,4.51A49.11,49.11,0,0,1,40,101.4L34.08,98A49.13,49.13,0,0,1,17.33,77.36,51.35,51.35,0,0,1,14,60.68,46.66,46.66,0,0,1,18.14,40.9c.24-.55.44-1.11.66-1.67a89.5,89.5,0,0,1,5.77-8.68,20.56,20.56,0,0,1,1.49-1.75,75.56,75.56,0,0,1,8-6.91,71.7,71.7,0,0,1,9.5-5A50.23,50.23,0,0,1,61.77,14a46.9,46.9,0,0,1,24.15,8,51.17,51.17,0,0,1,8,7,60.57,60.57,0,0,1,7.25,10.31c2.22,5.11,4.08,10.33,4.51,15.94a5.77,5.77,0,0,1,0,.72c.06,2.3,0,2.39-2.24,2.39H62.6c.18-.13.65,0,1.08,0,13.8,0,27.59,0,41.39,0a1.29,1.29,0,0,1,.86.2c.12,1.34-.91.7-1.37.7-5.11,0-10.22,0-15.33,0H60.6c-.38,0-.74,0-.77.54s.36.54.72.55h1.28c14.11,0,28.21,0,42.32,0,1.47,0,1.95.25,1.85,1.85a46.59,46.59,0,0,1-9.67,26c-.33.43-.63.89-.94,1.33A62.92,62.92,0,0,1,85.92,98Z"/><path class="cls-10" d="M105.93,58.47H61.53a3.44,3.44,0,0,1,2.22-.35c13.06,0,26.13-.06,39.19,0,1.84,0,2.59-.59,2.75-2.27A5.52,5.52,0,0,1,105.93,58.47Z"/><text class="cls-11" transform="translate(80.16 56.33)">r</text></svg>