<svg id="Capa_1" data-name="Capa 1" xmlns="http://www.w3.org/2000/svg" viewBox="0 0 120 120"><defs><style>.cls-1{fill:#010101;}.cls-2{fill:#fefefe;stroke:#000;stroke-miterlimit:10;}.cls-3{font-size:16.36px;font-family:TimesNewRomanPS-ItalicMT, Times New Roman;font-style:italic;}</style></defs><title>cuadrado</title><path class="cls-1" d="M97,60.78c0,11.68,0,23.36,0,35,0,1.48-.44,1.74-1.81,1.73q-35.2-.06-70.4,0c-1.49,0-1.75-.43-1.74-1.8q.06-35.13,0-70.26c0-1.48.43-1.74,1.8-1.74q35.21.07,70.41,0c1.48,0,1.74.43,1.74,1.79C96.93,37.3,97,49,97,60.78Z"/><path class="cls-2" d="M96.23,60.73c0,11.5,0,23,0,34.49,0,1.25-.26,1.61-1.57,1.61q-34.65-.08-69.3,0c-1.26,0-1.62-.27-1.61-1.57q.06-34.57,0-69.16c0-1.25.27-1.6,1.57-1.6q34.65.06,69.3,0c1.54,0,1.6.56,1.6,1.77C96.21,37.74,96.23,49.24,96.23,60.73Z"/><text class="cls-3" transform="translate(57.25 18.33)">a</text><text class="cls-3" transform="translate(10.25 64.33)">a</text><text class="cls-3" transform="translate(57.25 109.33)">a</text><text class="cls-3" transform="translate(102 64.33) scale(1.03 1)">a</text></svg>