<svg id="Capa_1" data-name="Capa 1" xmlns="http://www.w3.org/2000/svg" viewBox="0 0 120 120"><defs><style>.cls-1{fill:#040404;}.cls-2{fill:#070707;}.cls-3{fill:#080808;}.cls-4{fill:#060606;}.cls-5{fill:#090909;}.cls-6{fill:#0b0b0b;}.cls-7{fill:#050505;}.cls-8{fill:#111;}.cls-9{fill:#101010;}.cls-10{fill:#fefefe;}.cls-11{fill:#fdfdfd;}.cls-12{fill:#323232;}.cls-13{fill:#fbfbfb;}.cls-14{fill:#f8f8f8;}.cls-15{fill:#f5f5f5;}.cls-16{font-size:16.36px;font-family:TimesNewRomanPS-ItalicMT, Times New Roman;font-style:italic;}</style></defs><title>triangulo</title><path class="cls-1" d="M41.54,27.77c1.27-.6,1.89.43,2.67,1.07.07.48-.33.72-.57,1a14.3,14.3,0,0,0-.18,3.2V76.31c0,1,0,2-.05,2.92l0,.51c0,.16,0,.32,0,.49.26,2.21-.09,4.45.25,6.66a25.45,25.45,0,0,0,6.64,0,2.88,2.88,0,0,1,.51-.1l.53-.06c18.39-.07,36.77,0,55.16,0,.43,0,.88,0,1.31,0,1.14.1,1-.46.68-1.2,0-.38,0-.8.57-.72a11.08,11.08,0,0,1,2.71,2.4c.5.61.36,1.1-.47,1.16s-1.94,0-2.91,0h-96c-3.19,0-3.32-.21-1.8-3,.58-1.06,1.18-2.11,1.77-3.16.57,0,1.12.08,1,.88a11.08,11.08,0,0,1-1.09,2.21c-.7,1.41-.71,1.41.82,1.41h25.1a14.06,14.06,0,0,1,2.9.2c.88-.15.67-.85.67-1.38,0-2.92,0-5.83,0-8.75,0-14.14,0-28.28,0-42.42,0-1.25.51-2.5,0-3.74a4.32,4.32,0,0,0-.5-.45A.72.72,0,0,1,41,29.11,4.19,4.19,0,0,0,41.54,27.77Z"/><path class="cls-1" d="M13.19,82.53c-.38.21-.69.2-.87-.27Q17.13,73.13,22,64c1.27-2.4,2.58-4.77,3.88-7.16.6,0,.67.49.78.93a6.29,6.29,0,0,1-1.1,2.67c-3.19,5.84-6.29,11.72-9.37,17.62-.66,1.25-1.43,2.43-2,3.71C13.93,82.12,13.78,82.61,13.19,82.53Z"/><path class="cls-2" d="M80.81,60.61a58.55,58.55,0,0,1,6.42,5.33c4,3.54,8.33,6.79,12,10.69.13.26,0,.39-.22.51-.69.18-1.09-.28-1.52-.66q-8.09-7-16.23-14a2.23,2.23,0,0,1-1-1.24A.69.69,0,0,1,80.81,60.61Z"/><path class="cls-3" d="M57.73,40.62c3,2.55,6,5.09,8.93,7.66C69.83,51,73,53.8,76.12,56.57c.24.32.1.52-.21.68-.83.08-1.32-.51-1.87-1-4.65-4.06-9.37-8-14-12.11-1-.87-2.3-1.48-2.79-2.86A.81.81,0,0,1,57.73,40.62Z"/><path class="cls-4" d="M36.91,35.79l.29-.54c.13-.25.28-.48.62-.4a1.35,1.35,0,0,1,.66.8c-.78,2.63-2.43,4.84-3.64,7.27S32.19,47.67,31,50.11c-.27.55-.47,1.19-1.18,1.4-.37,0-.82.1-.81-.52l6.36-12c.25-.46.46-.94.69-1.42A2.41,2.41,0,0,1,36.91,35.79Z"/><path class="cls-2" d="M44.51,29.06c4.28,3.6,8.5,7.27,12.61,11.05.15.34,0,.54-.28.72-1.74-.24-2.63-1.74-3.83-2.72-2.76-2.26-5.4-4.68-8.15-7a2.42,2.42,0,0,1-1-1.35C43.9,29.41,44.21,29.24,44.51,29.06Z"/><path class="cls-5" d="M98.86,77l.41-.39c1.65.66,2.66,2.13,4,3.14.8.59,1.55,1.27,2.32,1.91a6.32,6.32,0,0,1,1.75,1.55L109,84.82a.61.61,0,0,0-.38.61c-.46.21-.73-.13-1-.36-2.73-2.21-5.37-4.54-8-6.85A1.52,1.52,0,0,1,98.86,77Z"/><path class="cls-6" d="M29,51c.22.33.56.27.88.28.24.8-.32,1.37-.62,2-.56,1.16-1.11,2.34-1.76,3.47-.26.44-.47,1-1.11,1l-.56-.94.27-.8a3.31,3.31,0,0,1,1.06-1.85Z"/><path class="cls-7" d="M38.31,35.49c-.43,0-.54-.33-.59-.69A4.49,4.49,0,0,1,39,32l2.52-4.25c.7.81-.78,1.39-.22,2.19A10.43,10.43,0,0,1,38.31,35.49Z"/><path class="cls-8" d="M75.75,57.14a.56.56,0,0,0,.37-.57,30.12,30.12,0,0,1,4.69,4l-.31.63A9.9,9.9,0,0,1,75.75,57.14Z"/><path class="cls-9" d="M56.79,40.8l.33-.69a.89.89,0,0,1,.61.51l-.37.78C57,41.41,56.75,41.23,56.79,40.8Z"/><path class="cls-7" d="M44.51,29.06a1.06,1.06,0,0,1-.68.63.27.27,0,0,1-.3-.28l.68-.57A.22.22,0,0,1,44.51,29.06Z"/><path class="cls-10" d="M43.53,29.41l.3.28c4.25,3.79,8.54,7.53,13,11.11a.94.94,0,0,0,.57.6l11,9.46c2.45,2.11,4.93,4.19,7.4,6.28a40.26,40.26,0,0,0,4.75,4.1C85.77,65.81,91,70.39,96.33,74.92c.83.71,1.44,1.7,2.53,2.1,3.14,2.93,6.42,5.7,9.76,8.41.34.64,1.57.95,1.32,1.53s-1.39.26-2.13.26q-27.5,0-55,0l-1.9,0c-.55-.68-.35-1.48-.38-2.25a39.72,39.72,0,0,0-.12-4.5,1.07,1.07,0,0,0-.34-.33A45.78,45.78,0,0,0,44.85,80,2.74,2.74,0,0,1,43,79.64q0-24.58.06-49.18C43.1,30.22,42.21,29.24,43.53,29.41Z"/><path class="cls-10" d="M38.31,35.49l3-5.53.45,0c.48.43.28,1,.28,1.51C42,49.61,42,67.72,42,85.84c0,.93-.06,1.63-1.2,1.63a2.68,2.68,0,0,0-1.43-.13H12.48a3.23,3.23,0,0,1-1.61-.15l2.32-4.65q4.7-8.72,9.37-17.41c1.31-2.44,2.56-4.9,3.83-7.35a59.72,59.72,0,0,0,3.49-6.5C32.8,46.07,35.59,40.8,38.31,35.49Z"/><path class="cls-11" d="M43,87.25V80.18a20.16,20.16,0,0,1,7.1-.05c.67,2.14.29,4.32.22,6.49,0,.47-.38.74-.91.72C47.32,87.28,45.18,87.45,43,87.25Z"/><path class="cls-7" d="M40.83,87.47c.94,0,1.1-.55,1.1-1.41q0-27.39,0-54.79A11.3,11.3,0,0,0,41.77,30c1,.45.67,1.47.57,2a12.55,12.55,0,0,0-.16,1.82q0,21.67,0,43.36c0,3.06,0,6.11,0,9.17C42.21,87.45,41.85,87.8,40.83,87.47Z"/><path class="cls-7" d="M50,80.23l-7,0v-.29a47.41,47.41,0,0,1,7.63,0h0a34,34,0,0,1-.09,7.34h-.16c-.48-1.75-.07-3.55-.22-5.32C50.17,81.33,50.45,80.73,50,80.23Z"/><path class="cls-12" d="M50,80.23c.65.23.4.8.4,1.22,0,1.92,0,3.84,0,5.75a20.62,20.62,0,0,1-7.39,0c2,0,4-.09,6,0,1,0,1.25-.3,1.18-1.23C50,84.07,50.35,82.14,50,80.23Z"/><path class="cls-12" d="M50.68,79.87l-7.63,0a2,2,0,0,1,0-.25l6.9,0C50.21,79.61,50.53,79.52,50.68,79.87Z"/><path class="cls-12" d="M50.59,87.21l.09-7.34c.41,1.91.07,3.83.18,5.75,0,.53,0,1.06.07,1.59Z"/><path class="cls-13" d="M43.73,78.34V31.9h.18V78.39Z"/><path class="cls-14" d="M54.33,41.25a3.11,3.11,0,0,1-.35-.67.24.24,0,0,1,.33-.3c.23.09.64.1.48.52C54.73,41,54.53,41.06,54.33,41.25Z"/><path class="cls-15" d="M89.62,71.55c-.31,0-.49-.11-.44-.31a.58.58,0,0,1,.41-.31c.2,0,.42.12.38.31S89.71,71.48,89.62,71.55Z"/><path class="cls-14" d="M97.05,78.52c-.45,0-.88,0-.8-.44,0-.11.16-.21.24-.31Z"/><text class="cls-16" transform="translate(46.4 65.33)">h</text><text class="cls-16" transform="translate(56.4 103.33)">b</text></svg>